:SAMPLES-PER-SECOND 30
:FRAME-RANGE 1-3535
:FULLY-SPECIFIED
:DEGREES
1326
root  -32.7743 36.4501 16.2618 -153.459 73.1042 -163.57
RightUpLeg  -40.2062 8.23976 -9.44031
RightLeg  44.9428 -0.158895 -0.471046
RightFoot  -14.3327 0.166028 10.0691
RightToes  5.38503e-012 1.26228e-014 -6.01869e-014
Spine  12.3558 -1.54627 -5.76729
Spine1  0.492922 -2.12991 3.05669
HEad  -18.4654 -29.9791 17.9733
LeftShoulder1  1.6569 -5.05792 -13.0419
LeftArm  42.8446 13.5946 -45.0435
LeftForeArm  36.4416 -41.3989 -7.49508
LeftHand  -0.0556092 5.029 13.4352
RightShoulder  1.09152 0.589958 21.6655
RightArm  32.4357 -15.9599 43.8236
RightForeArm  48.118 38.6004 6.01842
RightHand  0.681778 -7.66553 -33.6247
LeftUpLeg  -32.1786 -0.332264 5.68983
LeftLeg  47.086 -0.39476 0.00587416
LeftFoot  -26.3618 -0.0956515 -1.92724
LeftToes  8.9788e-011 3.29689e-010 2.1201e-011
1327
root  -32.7575 35.4557 16.7169 -151.522 71.5305 -163.478
RightUpLeg  -46.9395 9.0958 -11.9346
RightLeg  49.9317 -0.187864 -0.582627
RightFoot  -16.2068 0.314479 9.9734
RightToes  5.38503e-012 1.26228e-014 -6.01869e-014
Spine  16.7305 -1.51727 -6.19548
Spine1  -2.33576 -2.18501 4.37778
HEad  -23.9247 -29.449 20.8473
LeftShoulder1  1.49965 -4.33531 -12.8369
LeftArm  41.7981 16.5346 -41.1468
LeftForeArm  41.4406 -47.1852 -9.10328
LeftHand  -0.0352539 5.21537 14.8394
RightShoulder  0.971907 0.126214 21.9507
RightArm  31.637 -20.7984 38.2396
RightForeArm  52.9685 46.5008 8.12824
RightHand  0.513528 -7.10103 -33.6416
LeftUpLeg  -37.9885 0.0156243 7.13919
LeftLeg  53.7021 -1.25302 -1.30603
LeftFoot  -28.7022 -0.0652255 -1.5586
LeftToes  8.9788e-011 3.29689e-010 2.1201e-011
1328
root  -32.6692 34.4875 17.1808 -150.017 70.8322 -164.002
RightUpLeg  -53.6321 9.4631 -15.1679
RightLeg  53.6922 -0.447989 -1.04006
RightFoot  -16.8383 0.345869 9.56877
RightToes  5.38503e-012 1.26228e-014 -6.01869e-014
Spine  20.8064 -1.08487 -6.77892
Spine1  -5.14086 -1.71517 5.33174
HEad  -28.8238 -29.1093 23.3455
LeftShoulder1  1.43896 -4.04783 -12.7721
LeftArm  40.284 18.2358 -38.9418
LeftForeArm  39.5021 -48.5512 -9.75673
LeftHand  -0.061039 5.00419 14.5606
RightShoulder  0.904509 -0.160989 22.3979
RightArm  28.0075 -24.1242 35.3336
RightForeArm  54.7193 49.7002 9.18152
RightHand  0.364501 -6.54886 -34.9395
LeftUpLeg  -43.2057 0.276152 8.19777
LeftLeg  59.3354 -1.46374 -2.05788
LeftFoot  -30.916 -0.129195 -1.82901
LeftToes  8.9788e-011 3.29689e-010 2.1201e-011
1329
root  -32.5211 33.6937 17.5793 -149.602 70.1754 -164.552
RightUpLeg  -58.2139 9.85845 -18.6977
RightLeg  54.807 -1.01418 -1.94683
RightFoot  -15.7708 0.254288 9.32873
RightToes  5.38503e-012 1.26228e-014 -6.01869e-014
Spine  25.4292 -0.529696 -6.61994
Spine1  -7.49419 -1.12619 6.07227
HEad  -33.4875 -28.2962 24.5336
LeftShoulder1  1.54144 -4.53141 -12.8838
LeftArm  38.4149 17.2192 -39.4367
LeftForeArm  34.2881 -44.9281 -8.78183
LeftHand  -0.106741 4.64696 14.9022
RightShoulder  0.861181 -0.336718 22.6389
RightArm  22.058 -24.7831 35.9167
RightForeArm  49.9189 48.6329 9.07966
RightHand  0.201137 -5.98947 -36.4564
LeftUpLeg  -46.431 -0.314432 9.34284
LeftLeg  63.5965 -1.34243 -2.24545
LeftFoot  -32.8697 -0.298567 -2.61374
LeftToes  8.9788e-011 3.29689e-010 2.1201e-011
1330
root  -32.2378 33.0271 17.9375 -149.524 69.5547 -165.8
RightUpLeg  -62.0481 9.8204 -22.8549
RightLeg  53.8582 -1.74134 -2.9496
RightFoot  -14.5908 0.164479 9.27786
RightToes  5.38503e-012 1.26228e-014 -6.01869e-014
Spine  28.2433 -0.301471 -5.57728
Spine1  -8.6269 -0.638626 6.19458
HEad  -37.3539 -27.7883 25.3059
LeftShoulder1  1.78874 -5.37351 -13.9226
LeftArm  37.7315 12.5362 -40.7902
LeftForeArm  29.3498 -39.3453 -7.32431
LeftHand  -0.0894734 4.78419 14.8971
RightShoulder  0.925282 -0.20204 23.516
RightArm  16.1757 -21.975 37.9281
RightForeArm  43.1605 45.3168 8.32978
RightHand  -0.0501278 -5.21909 -38.1325
LeftUpLeg  -49.346 -1.02911 10.3387
LeftLeg  66.9761 -1.23983 -2.41266
LeftFoot  -34.3685 -0.539898 -3.66923
LeftToes  8.9788e-011 3.29689e-010 2.1201e-011
1331
root  -31.7574 32.4557 18.3083 -151.449 69.6716 -168.59
RightUpLeg  -63.9877 9.33142 -26.4576
RightLeg  51.4736 -3.38778 -4.91332
RightFoot  -14.5077 0.141544 8.67389
RightToes  5.38503e-012 1.26228e-014 -6.01869e-014
Spine  29.9314 -0.0463773 -5.38863
Spine1  -9.27697 -0.247014 6.1004
HEad  -39.9037 -27.5425 24.5752
LeftShoulder1  2.05614 -6.30211 -14.7928
LeftArm  36.1059 6.68556 -43.1586
LeftForeArm  22.427 -34.6933 -6.45477
LeftHand  -0.164275 4.14439 14.3418
RightShoulder  1.20981 0.694442 24.0482
RightArm  14.4116 -14.9638 40.893
RightForeArm  37.286 39.461 6.87205
RightHand  -0.391685 -4.28192 -40.3989
LeftUpLeg  -50.6785 -1.19952 10.4705
LeftLeg  69.5144 -1.18485 -2.62798
LeftFoot  -36.0882 -0.773474 -4.51982
LeftToes  8.9788e-011 3.29689e-010 2.1201e-011
1332
root  -31.1505 32.0056 18.6195 -154.564 70.0721 -172.059
RightUpLeg  -64.0906 7.72357 -27.8783
RightLeg  48.5202 -4.77749 -6.09372
RightFoot  -11.4918 -0.0633753 11.3322
RightToes  5.38503e-012 1.26228e-014 -6.01869e-014
Spine  30.3054 0.100457 -4.41396
Spine1  -9.00725 0.0896063 5.3997
HEad  -42.4073 -28.304 24.1352
LeftShoulder1  2.28994 -7.09187 -15.4755
LeftArm  32.7031 -0.84974 -46.1397
LeftForeArm  20.7988 -32.9725 -6.10605
LeftHand  -0.208527 3.82228 14.7638
RightShoulder  1.61432 2.12244 23.5834
RightArm  15.8817 -5.79185 44.252
RightForeArm  35.3373 34.8155 5.73648
RightHand  -0.905723 -3.01208 -42.7799
LeftUpLeg  -50.6536 -1.64297 10.2864
LeftLeg  71.344 -1.09269 -2.64722
LeftFoot  -37.7308 -1.0941 -5.63903
LeftToes  8.9788e-011 3.29689e-010 2.1201e-011
